# xmcd
#
# Track frame offsets:
#	150
#	14740
#	28645
#	43619
#	56862
#	80050
#	93408
#	107966
#	117050
#	132098
#	158257
#	174569
#	193939
#	209882
#
# Disc length: 2962 seconds
#
# Revision: 1
# Processed by: cddbd v1.5.2PL0 Copyright (c) Steve Scherf et al.
# Submitted via: audiograbber 1.83.01
#
DISCID=c60b900e
DTITLE=Jimmy Buffett - Golden Legends
DYEAR=2007
DGENRE=Country
TTITLE0=The Captain And The Kid
TTITLE1=A Mile High In Denver
TTITLE2=There's Nothing Soft About Hard Times
TTITLE3=I Can't Be Your Hero Today
TTITLE4=High Cumberland Jubilee--Coming Down Slow
TTITLE5=Bend A Little
TTITLE6=Ace
TTITLE7=God Don't Own A Car
TTITLE8=Captain America
TTITLE9=Truckstop Salvation
TTITLE10=Death Valley Lives
TTITLE11=Turnabout
TTITLE12=In The Shelter
TTITLE13=Ain't He A Genius
EXTD=
EXTT0=
EXTT1=
EXTT2=
EXTT3=
EXTT4=
EXTT5=
EXTT6=
EXTT7=
EXTT8=
EXTT9=
EXTT10=
EXTT11=
EXTT12=
EXTT13=
PLAYORDER=
